<?xml version="1.0" standalone="no"?>
<!DOCTYPE svg PUBLIC "-//W3C//DTD SVG 20010904//EN"
 "http://www.w3.org/TR/2001/REC-SVG-20010904/DTD/svg10.dtd">
<svg version="1.0" xmlns="http://www.w3.org/2000/svg"
 width="1024.000000pt" height="1024.000000pt" viewBox="0 0 1024.000000 1024.000000"
 preserveAspectRatio="xMidYMid meet">

<g transform="translate(0.000000,1024.000000) scale(0.100000,-0.100000)"
fill="#000000" stroke="none">
<path d="M28 10231 c-7 -2 -16 -8 -19 -13 -9 -13 -5 -10196 4 -10205 10 -9
10202 -11 10211 -2 5 5 10 6961 7 9554 l-1 670 -5095 0 c-2802 0 -5101 -2
-5107 -4z m7838 -3786 c93 -17 241 -71 309 -113 145 -90 261 -246 311 -418 17
-59 55 -266 49 -272 -4 -4 -126 28 -143 37 -8 5 -15 33 -18 74 -15 241 -200
468 -434 534 -62 17 -184 18 -2830 18 -3078 0 -2806 6 -2955 -67 -109 -52
-228 -202 -243 -303 l-7 -46 -85 -34 c-46 -19 -86 -32 -89 -30 -10 11 40 180
66 222 15 25 37 62 48 82 11 20 56 72 100 117 80 81 165 137 255 169 125 44
50 43 2886 44 2387 1 2701 -1 2780 -14z m-2870 -557 l61 -31 7 -81 c3 -44 6
-122 6 -172 0 -50 3 -160 7 -245 l6 -153 18 42 c10 23 22 42 27 42 5 0 28 28
50 63 23 34 65 88 94 120 l53 58 149 -3 149 -3 -49 -55 c-28 -30 -76 -92 -108
-137 -33 -46 -81 -110 -107 -142 l-48 -59 49 -71 c79 -114 157 -216 221 -286
32 -36 59 -72 59 -80 0 -13 -23 -15 -139 -15 l-138 0 -82 98 c-46 53 -107 134
-138 180 -30 45 -57 82 -60 82 -3 0 -3 -93 -1 -207 6 -235 3 -245 -61 -281
-23 -13 -72 -50 -109 -83 -37 -32 -69 -59 -72 -59 -3 0 -6 340 -6 754 -2 692
0 755 15 760 30 8 86 -5 147 -36z m2212 15 c12 -5 14 -41 11 -229 -4 -232 -2
-246 35 -205 10 11 43 32 74 47 50 25 69 28 157 28 94 1 105 -1 167 -32 78
-38 150 -112 183 -187 12 -27 28 -63 35 -80 l13 -30 12 52 c26 114 124 216
243 253 106 33 183 36 277 10 154 -42 246 -128 303 -283 28 -75 31 -181 5
-192 -10 -4 -150 -9 -311 -12 l-294 -6 6 -29 c15 -76 89 -128 181 -128 65 0
114 18 141 52 18 23 27 25 147 31 l128 6 -7 -22 c-3 -12 -18 -44 -33 -71 -96
-180 -327 -269 -511 -196 -126 50 -213 137 -261 264 l-22 57 -43 -89 c-47 -97
-103 -163 -175 -205 -49 -29 -146 -57 -196 -57 -57 0 -144 40 -199 91 -28 27
-54 46 -57 42 -4 -3 -7 -27 -7 -52 l0 -46 -107 0 -108 0 -3 619 -2 619 101 -8
c56 -4 109 -9 117 -12z m-935 -163 c3 -58 3 -107 0 -110 -2 -3 -74 -7 -159 -9
l-154 -3 -2 -352 c-2 -193 -3 -397 -3 -453 0 -66 -4 -106 -12 -114 -7 -7 -54
-14 -117 -17 -105 -5 -105 -5 -111 20 -4 14 -5 223 -3 466 3 436 3 442 -17
444 -11 1 -49 2 -85 2 -36 1 -113 2 -172 4 l-108 2 0 113 0 112 469 0 468 0 6
-105z m-4032 24 c167 -49 303 -187 325 -331 l6 -41 -103 -4 c-83 -3 -106 -1
-114 11 -82 119 -211 161 -355 114 -61 -20 -149 -94 -174 -148 -49 -102 -40
-243 21 -333 63 -93 152 -138 253 -129 80 7 147 40 202 98 l47 51 38 -13 c21
-7 71 -13 111 -13 l74 -1 -6 -44 c-11 -80 -105 -206 -191 -256 -194 -113 -449
-91 -632 53 -66 53 -147 174 -175 265 -33 103 -33 274 0 368 60 175 209 312
384 355 76 18 224 17 289 -2z m4259 -203 c0 -6 -7 -11 -15 -11 -9 0 -15 10
-15 26 0 23 2 24 15 10 8 -8 15 -19 15 -25z m-2897 -23 c22 -5 58 -27 83 -50
l44 -41 0 48 c0 41 2 46 18 40 26 -10 144 -35 170 -35 22 0 22 -3 23 -122 1
-68 5 -136 9 -153 7 -33 5 -35 33 40 18 48 85 142 130 181 23 19 71 50 107 67
61 30 70 32 180 32 109 0 119 -2 183 -32 42 -20 85 -51 116 -83 48 -50 111
-154 111 -183 0 -17 -60 -27 -164 -27 -68 1 -72 2 -91 32 -35 55 -69 73 -140
73 -54 0 -69 -4 -106 -30 -24 -17 -53 -50 -66 -75 -20 -39 -23 -56 -20 -122 5
-100 32 -144 112 -183 61 -30 84 -29 160 4 32 14 49 30 64 59 20 39 21 40 58
31 21 -5 71 -9 111 -9 71 0 72 0 72 -27 0 -37 -61 -141 -120 -206 -140 -153
-394 -148 -572 12 -50 45 -118 167 -134 241 -7 34 -8 34 -15 10 -4 -14 -7 -96
-8 -182 l-1 -158 -115 0 -115 0 0 55 0 56 -64 -50 c-84 -64 -143 -86 -231 -86
-59 0 -81 5 -137 33 -79 39 -125 89 -174 187 -38 79 -56 176 -44 245 28 157
33 173 81 245 54 80 109 123 190 150 100 33 169 37 262 13z m-440 -5 c5 -3 -7
-22 -27 -42 -30 -31 -69 -101 -89 -162 -3 -9 -21 -19 -42 -22 -56 -9 -101 -43
-126 -94 -21 -44 -23 -64 -27 -273 -3 -191 -6 -227 -20 -237 -10 -9 -52 -13
-123 -13 l-107 0 2 420 1 420 108 0 107 0 0 -54 c0 -30 4 -57 9 -60 4 -3 19
11 32 32 43 66 149 107 249 95 25 -3 49 -7 53 -10z m3116 -9 l61 -7 0 -228 c0
-129 5 -250 11 -280 21 -99 91 -140 192 -114 34 9 59 23 74 42 46 57 53 102
54 356 l1 237 119 0 118 0 3 -412 c3 -355 1 -415 -12 -426 -10 -9 -44 -12
-115 -10 l-100 3 -3 43 -3 43 -41 -36 c-59 -54 -111 -75 -189 -75 -171 0 -308
103 -338 254 -6 28 -12 178 -13 334 l-3 282 61 0 c34 0 89 -3 123 -6z m-754
-331 c-14 -26 -11 -72 5 -83 11 -8 32 -51 27 -56 -5 -6 -67 85 -67 98 0 16 30
68 40 68 5 0 2 -12 -5 -27z m-3719 -606 l79 -42 7 -76 c12 -132 66 -236 177
-342 73 -70 155 -109 277 -133 83 -17 258 -17 2802 -15 2626 2 2714 2 2786 21
132 34 218 88 301 191 30 37 62 85 71 106 9 21 27 63 40 93 13 30 28 73 32 94
7 37 10 40 60 52 29 8 62 19 73 24 18 10 19 8 13 -32 -33 -217 -121 -380 -276
-514 -92 -79 -180 -122 -343 -171 -57 -17 -202 -18 -2685 -21 -1721 -2 -2668
1 -2750 7 -373 30 -595 194 -700 515 -17 51 -53 286 -45 286 1 0 37 -19 81
-43z m3448 -13 c4 -9 5 -17 4 -18 -2 -1 -10 -7 -19 -14 -13 -10 -15 -8 -11 18
5 33 16 39 26 14z"/>
<path d="M8222 5319 c-43 -22 -102 -83 -102 -106 0 -10 42 -13 185 -13 l185 0
-10 25 c-39 103 -154 145 -258 94z"/>
<path d="M7355 5320 c-40 -13 -102 -65 -122 -103 -28 -54 -23 -151 10 -220 41
-82 82 -111 166 -115 89 -4 131 20 186 108 35 57 40 71 39 125 0 76 -29 143
-79 181 -32 24 -49 29 -104 31 -36 1 -79 -2 -96 -7z"/>
<path d="M3435 5316 c-40 -18 -60 -41 -90 -109 -52 -119 -19 -254 76 -302 36
-19 132 -19 168 -1 35 19 85 75 111 126 38 74 20 168 -44 239 -48 54 -154 76
-221 47z"/>
</g>
</svg>
